<?xml version="1.0" encoding="UTF-8"?>
<svg xmlns="http://www.w3.org/2000/svg" viewBox="0 0 137.94 79.94">
  <defs>
    <style>
      .cls-1, .cls-2 {
        stroke: #c52928;
      }

      .cls-1, .cls-3 {
        fill: none;
        stroke-linejoin: round;
        stroke-width: .67px;
      }

      .cls-4, .cls-5 {
        fill: #231f20;
      }

      .cls-2, .cls-6, .cls-7, .cls-8 {
        fill: #fff;
      }

      .cls-2, .cls-5, .cls-8, .cls-9 {
        stroke-miterlimit: 10;
      }

      .cls-2, .cls-8 {
        stroke-width: .75px;
      }

      .cls-7, .cls-5, .cls-8, .cls-10, .cls-3 {
        stroke: #231f20;
      }

      .cls-7, .cls-10 {
        stroke-linecap: square;
        stroke-miterlimit: 257;
      }

      .cls-5 {
        stroke-dasharray: 0 2;
        stroke-linecap: round;
        stroke-width: .5px;
      }

      .cls-10 {
        fill: #1e1e1e;
      }

      .cls-9 {
        fill: #f6f1eb;
        stroke: #f6f1eb;
      }
    </style>
  </defs>
  <g id="Daniel">
    <rect class="cls-6" x=".05" y=".43" width="137.65" height="79.08"/>
    <g>
      <polygon class="cls-4" points=".17 79.38 .17 38.05 93.64 79.38 .17 79.38"/>
      <path class="cls-4" d="M.3,38.24l92.76,41.02H.3v-41.02M.05,37.86v41.65h94.19L.05,37.86H.05Z"/>
    </g>
    <polygon class="cls-4" points="137.69 42.22 137.69 .43 42.48 .43 137.69 42.22"/>
  </g>
  <g id="Layer_6" data-name="Layer 6">
    <line class="cls-9" x1=".25" y1="79.51" x2="137.69" y2=".43"/>
  </g>
  <g id="Background">
    <g>
      <rect class="cls-10" x="9.63" y="9.45" width="59.71" height="61.11" rx="9" ry="9" transform="translate(-16.72 39.64) rotate(-45)"/>
      <rect class="cls-7" x="13.47" y="9.45" width="59.71" height="61.11" rx="9" ry="9" transform="translate(-15.6 42.35) rotate(-45)"/>
    </g>
    <line class="cls-5" x1="25.54" y1="60.57" x2="57.98" y2="60.57"/>
    <g>
      <rect class="cls-10" x="64.59" y="9.45" width="59.71" height="61.11" rx="9" ry="9" transform="translate(-.62 78.5) rotate(-45)"/>
      <rect class="cls-7" x="68.42" y="9.45" width="59.71" height="61.11" rx="9" ry="9" transform="translate(.5 81.21) rotate(-45)"/>
    </g>
  </g>
  <g id="Front">
    <g>
      <path class="cls-3" d="M26.24,58.3l.41-.57.06-.08.06-.09.06-.09.06-.09.06-.1.06-.1.06-.11.06-.11.06-.11.06-.12.06-.12.06-.13.06-.13.06-.14.06-.14.06-.15.06-.15.06-.16.06-.16.06-.17.06-.17.06-.18.06-.18.06-.19.06-.2.06-.2.06-.21.06-.21.06-.22.06-.23.06-.23.06-.24.06-.24.06-.25.06-.26.06-.26.06-.27.06-.28.06-.28.06-.29.06-.29.06-.3.06-.31.06-.31.06-.32.06-.33.06-.33.06-.34"/>
      <path class="cls-3" d="M29.46,48.18l.06-.34.06-.34.06-.35.06-.36.06-.36.06-.37.06-.37.06-.38.06-.38.06-.39.06-.39.06-.4.06-.4.06-.4.06-.41.06-.41.06-.41.06-.42.06-.42.06-.42.06-.43.06-.43.06-.43.06-.43.06-.43.06-.43.06-.43.06-.43.06-.43.06-.43.06-.43.06-.43.06-.43.06-.42.06-.42.06-.42.06-.42.06-.41.06-.41.06-.4.06-.4.06-.39.06-.39.06-.38.06-.37.06-.37.06-.36.06-.35.06-.35.06-.34.06-.33"/>
      <path class="cls-3" d="M32.56,28.28l.06-.33.06-.32.06-.31.06-.3.06-.29.06-.28.06-.27.06-.26.06-.25.06-.23.06-.22.06-.21.06-.2.06-.18.06-.17.06-.16.06-.15.06-.13.06-.12.06-.11.06-.09.06-.08.06-.06.06-.05.06-.03.06-.02h.06s.06,0,.06,0l.06.02.05.04.05.05.05.06.05.08.05.09.05.11.05.12.05.13.05.15.05.16.05.17.05.19.05.2.05.21.05.22.05.24.05.25.05.26.05.27.05.28.05.29.05.3"/>
      <path class="cls-3" d="M35.35,27.06l.05.3.05.31.05.32.05.33.05.34.05.35.05.35.05.36.05.37.05.38.05.38.05.39.05.39.05.4.05.41.05.41.05.41.05.42.05.42.05.42.05.43.05.43.05.43.05.43.05.43.05.43.05.43.05.43.05.43.05.43.05.43.05.43.05.43.05.43.05.42.05.42.05.42.05.42.05.41.05.41.05.41.05.4.05.4.05.39.05.39.05.38.05.38.05.37.05.37.05.36.05.36"/>
      <path class="cls-3" d="M37.81,46.92l.05.36.05.35.05.35.05.34.05.33.05.33.05.32.05.32.05.31.05.3.05.3.05.29.05.28.05.28.05.27.05.26.05.26.05.25.05.25.05.24.05.23.05.23.05.22.05.21.05.21.05.2.05.2.05.19.05.19.05.18.05.17.05.17.05.16.05.16.05.15.05.15.05.14.05.14.05.13.05.13.05.12.05.12.05.12.05.11.05.11.05.1.05.1.05.1.05.09.05.09.46.71"/>
      <path class="cls-3" d="M40.42,57.53l.05.08.05.08"/>
    </g>
    <g>
      <path class="cls-1" d="M37.88,58.15l.49-.7.07-.1.07-.11.07-.11.07-.12.07-.12.07-.13.07-.13.07-.14.07-.14.07-.15.07-.15.07-.16.07-.16.07-.17.07-.18.07-.18.07-.19.07-.19.07-.2.07-.21.07-.21.07-.22.07-.23.07-.24.07-.24.07-.25.07-.26.07-.26.07-.27.07-.28.07-.29.07-.29.07-.3.07-.31.07-.32.07-.33.07-.33.07-.34.07-.35.07-.36.07-.37.07-.37.07-.38.07-.39.07-.4.07-.4.07-.41.07-.42"/>
      <path class="cls-1" d="M41.76,45.6l.07-.42.07-.43.07-.43.07-.44.07-.45.07-.45.07-.46.07-.47.07-.47.07-.48.07-.49.07-.49.07-.5.07-.5.07-.51.07-.51.07-.51.07-.52.07-.52.07-.52.08-.53.08-.53.08-.53.08-.53.08-.53.08-.54.08-.54.08-.54.08-.54.08-.53.08-.53.08-.53.08-.53.08-.53.07-.52.07-.52.07-.52.07-.51.07-.51.07-.5.07-.49.07-.49.07-.48.07-.47.07-.46.07-.46.07-.45.07-.44.07-.43.07-.42.07-.41"/>
      <path class="cls-1" d="M45.48,20.9l.07-.41.07-.4.07-.38.07-.37.07-.36.07-.35.07-.33.07-.32.07-.3.07-.29.07-.28.07-.26.07-.25.07-.23.07-.21.07-.2.07-.18.07-.16.07-.15.07-.13.07-.11.07-.1.07-.08.07-.06.07-.04.07-.03h.07s.07,0,.07,0l.07.03.07.05.07.06.07.08.07.1.06.12.06.13.06.15.06.17.06.18.06.2.06.22.06.23.06.25.06.26.06.28.06.29.06.31.06.32.06.33.06.35.06.36.06.37"/>
      <path class="cls-1" d="M48.84,19.4l.06.37.06.39.06.4.06.41.06.42.06.43.06.44.06.45.06.46.06.47.06.48.06.48.06.49.06.5.06.5.06.51.06.51.06.52.06.52.06.53.06.53.06.53.06.53.06.54.06.54.06.54.06.54.06.54.06.54.06.54.06.54.06.53.06.53.06.53.06.53.06.52.06.52.06.52.06.51.06.51.06.5.06.5.06.49.06.49.06.48.06.48.06.47.06.46.06.46.06.45.06.44"/>
      <path class="cls-1" d="M51.78,44.03l.06.44.06.44.06.43.06.42.06.41.06.41.06.4.06.39.06.38.06.38.06.37.06.36.06.35.06.34.06.34.06.33.06.32.06.31.06.3.06.3.06.29.06.28.06.27.06.27.06.26.06.25.06.24.06.24.06.23.06.22.06.22.06.21.06.2.06.2.06.19.06.18.06.18.06.17.06.17.06.16.06.15.06.15.06.14.06.14.06.13.06.13.06.12.06.12.06.11.06.11.55.88"/>
      <path class="cls-1" d="M54.91,57.19l.07.1.07.1"/>
    </g>
    <g>
      <line class="cls-8" x1="84.34" y1="19.67" x2="84.34" y2="57.68"/>
      <line class="cls-8" x1="94.24" y1="42.65" x2="94.24" y2="57.68"/>
      <line class="cls-8" x1="104.13" y1="48.72" x2="104.13" y2="58"/>
    </g>
    <g>
      <line class="cls-2" x1="96.68" y1="17.92" x2="96.68" y2="57.8"/>
      <line class="cls-2" x1="106.57" y1="38.88" x2="106.57" y2="57.8"/>
      <line class="cls-2" x1="116.47" y1="28.98" x2="116.47" y2="58.2"/>
    </g>
    <line class="cls-5" x1="84.18" y1="60.43" x2="116.63" y2="60.43"/>
  </g>
</svg>