<?xml version="1.0" encoding="UTF-8"?>
<svg xmlns="http://www.w3.org/2000/svg" viewBox="0 0 139.4 83.29">
  <defs>
    <style>
      .cls-1, .cls-2 {
        stroke: #c52928;
      }

      .cls-1, .cls-3 {
        fill: none;
        stroke-linejoin: round;
        stroke-width: .67px;
      }

      .cls-4, .cls-5 {
        fill: #231f20;
      }

      .cls-2, .cls-6, .cls-7, .cls-8 {
        fill: #fff;
      }

      .cls-2, .cls-5, .cls-8, .cls-9 {
        stroke-miterlimit: 10;
      }

      .cls-2, .cls-8 {
        stroke-width: .75px;
      }

      .cls-7, .cls-5, .cls-8, .cls-10, .cls-3 {
        stroke: #231f20;
      }

      .cls-7, .cls-10 {
        stroke-linecap: square;
        stroke-miterlimit: 257;
      }

      .cls-5 {
        stroke-dasharray: 0 2;
        stroke-linecap: round;
        stroke-width: .5px;
      }

      .cls-10 {
        fill: #1e1e1e;
      }

      .cls-9 {
        fill: #f6f1eb;
        stroke: #f6f1eb;
      }
    </style>
  </defs>
  <g id="Daniel">
    <rect class="cls-6" width="139.4" height="83.29"/>
    <g>
      <polygon class="cls-4" points="1.12 81.59 1.12 40.12 94.15 81.59 1.12 81.59"/>
      <path class="cls-4" d="M1.25,40.31l92.31,41.16H1.25v-41.16M1,39.92v41.79h93.74L1,39.92h0Z"/>
    </g>
    <polygon class="cls-4" points="138.19 44.43 138.19 2.64 42.98 2.64 138.19 44.43"/>
  </g>
  <g id="Layer_6" data-name="Layer 6">
    <line class="cls-9" x1="1" y1="81.71" x2="138.19" y2="2.64"/>
  </g>
  <g id="Background">
    <g>
      <rect class="cls-10" x="10.13" y="11.65" width="59.71" height="61.11" rx="9" ry="9" transform="translate(-18.13 40.64) rotate(-45)"/>
      <rect class="cls-7" x="13.97" y="11.65" width="59.71" height="61.11" rx="9" ry="9" transform="translate(-17.01 43.35) rotate(-45)"/>
    </g>
    <line class="cls-5" x1="26.04" y1="62.77" x2="58.48" y2="62.77"/>
    <g>
      <rect class="cls-10" x="65.09" y="11.65" width="59.71" height="61.11" rx="9" ry="9" transform="translate(-2.04 79.5) rotate(-45)"/>
      <rect class="cls-7" x="68.92" y="11.65" width="59.71" height="61.11" rx="9" ry="9" transform="translate(-.91 82.21) rotate(-45)"/>
    </g>
  </g>
  <g id="Front">
    <g>
      <path class="cls-3" d="M26.74,60.51l.41-.57.06-.08.06-.09.06-.09.06-.09.06-.1.06-.1.06-.11.06-.11.06-.11.06-.12.06-.12.06-.13.06-.13.06-.14.06-.14.06-.15.06-.15.06-.16.06-.16.06-.17.06-.17.06-.18.06-.18.06-.19.06-.2.06-.2.06-.21.06-.21.06-.22.06-.23.06-.23.06-.24.06-.24.06-.25.06-.26.06-.26.06-.27.06-.28.06-.28.06-.29.06-.29.06-.3.06-.31.06-.31.06-.32.06-.33.06-.33.06-.34"/>
      <path class="cls-3" d="M29.96,50.39l.06-.34.06-.34.06-.35.06-.36.06-.36.06-.37.06-.37.06-.38.06-.38.06-.39.06-.39.06-.4.06-.4.06-.4.06-.41.06-.41.06-.41.06-.42.06-.42.06-.42.06-.43.06-.43.06-.43.06-.43.06-.43.06-.43.06-.43.06-.43.06-.43.06-.43.06-.43.06-.43.06-.43.06-.42.06-.42.06-.42.06-.42.06-.41.06-.41.06-.4.06-.4.06-.39.06-.39.06-.38.06-.37.06-.37.06-.36.06-.35.06-.35.06-.34.06-.33"/>
      <path class="cls-3" d="M33.06,30.48l.06-.33.06-.32.06-.31.06-.3.06-.29.06-.28.06-.27.06-.26.06-.25.06-.23.06-.22.06-.21.06-.2.06-.18.06-.17.06-.16.06-.15.06-.13.06-.12.06-.11.06-.09.06-.08.06-.06.06-.05.06-.03.06-.02h.06s.06,0,.06,0l.06.02.05.04.05.05.05.06.05.08.05.09.05.11.05.12.05.13.05.15.05.16.05.17.05.19.05.2.05.21.05.22.05.24.05.25.05.26.05.27.05.28.05.29.05.3"/>
      <path class="cls-3" d="M35.85,29.27l.05.3.05.31.05.32.05.33.05.34.05.35.05.35.05.36.05.37.05.38.05.38.05.39.05.39.05.4.05.41.05.41.05.41.05.42.05.42.05.42.05.43.05.43.05.43.05.43.05.43.05.43.05.43.05.43.05.43.05.43.05.43.05.43.05.43.05.43.05.42.05.42.05.42.05.42.05.41.05.41.05.41.05.4.05.4.05.39.05.39.05.38.05.38.05.37.05.37.05.36.05.36"/>
      <path class="cls-3" d="M38.31,49.13l.05.36.05.35.05.35.05.34.05.33.05.33.05.32.05.32.05.31.05.3.05.3.05.29.05.28.05.28.05.27.05.26.05.26.05.25.05.25.05.24.05.23.05.23.05.22.05.21.05.21.05.2.05.2.05.19.05.19.05.18.05.17.05.17.05.16.05.16.05.15.05.15.05.14.05.14.05.13.05.13.05.12.05.12.05.12.05.11.05.11.05.1.05.1.05.1.05.09.05.09.46.71"/>
      <path class="cls-3" d="M40.92,59.74l.05.08.05.08"/>
    </g>
    <g>
      <path class="cls-1" d="M38.38,60.36l.49-.7.07-.1.07-.11.07-.11.07-.12.07-.12.07-.13.07-.13.07-.14.07-.14.07-.15.07-.15.07-.16.07-.16.07-.17.07-.18.07-.18.07-.19.07-.19.07-.2.07-.21.07-.21.07-.22.07-.23.07-.24.07-.24.07-.25.07-.26.07-.26.07-.27.07-.28.07-.29.07-.29.07-.3.07-.31.07-.32.07-.33.07-.33.07-.34.07-.35.07-.36.07-.37.07-.37.07-.38.07-.39.07-.4.07-.4.07-.41.07-.42"/>
      <path class="cls-1" d="M42.26,47.8l.07-.42.07-.43.07-.43.07-.44.07-.45.07-.45.07-.46.07-.47.07-.47.07-.48.07-.49.07-.49.07-.5.07-.5.07-.51.07-.51.07-.51.07-.52.07-.52.07-.52.08-.53.08-.53.08-.53.08-.53.08-.53.08-.54.08-.54.08-.54.08-.54.08-.53.08-.53.08-.53.08-.53.08-.53.07-.52.07-.52.07-.52.07-.51.07-.51.07-.5.07-.49.07-.49.07-.48.07-.47.07-.46.07-.46.07-.45.07-.44.07-.43.07-.42.07-.41"/>
      <path class="cls-1" d="M45.98,23.11l.07-.41.07-.4.07-.38.07-.37.07-.36.07-.35.07-.33.07-.32.07-.3.07-.29.07-.28.07-.26.07-.25.07-.23.07-.21.07-.2.07-.18.07-.16.07-.15.07-.13.07-.11.07-.1.07-.08.07-.06.07-.04.07-.03h.07s.07,0,.07,0l.07.03.07.05.07.06.07.08.07.1.06.12.06.13.06.15.06.17.06.18.06.2.06.22.06.23.06.25.06.26.06.28.06.29.06.31.06.32.06.33.06.35.06.36.06.37"/>
      <path class="cls-1" d="M49.34,21.6l.06.37.06.39.06.4.06.41.06.42.06.43.06.44.06.45.06.46.06.47.06.48.06.48.06.49.06.5.06.5.06.51.06.51.06.52.06.52.06.53.06.53.06.53.06.53.06.54.06.54.06.54.06.54.06.54.06.54.06.54.06.54.06.53.06.53.06.53.06.53.06.52.06.52.06.52.06.51.06.51.06.5.06.5.06.49.06.49.06.48.06.48.06.47.06.46.06.46.06.45.06.44"/>
      <path class="cls-1" d="M52.28,46.24l.06.44.06.44.06.43.06.42.06.41.06.41.06.4.06.39.06.38.06.38.06.37.06.36.06.35.06.34.06.34.06.33.06.32.06.31.06.3.06.3.06.29.06.28.06.27.06.27.06.26.06.25.06.24.06.24.06.23.06.22.06.22.06.21.06.2.06.2.06.19.06.18.06.18.06.17.06.17.06.16.06.15.06.15.06.14.06.14.06.13.06.13.06.12.06.12.06.11.06.11.55.88"/>
      <path class="cls-1" d="M55.41,59.4l.07.1.07.1"/>
    </g>
    <g>
      <line class="cls-8" x1="84.84" y1="21.87" x2="84.84" y2="59.89"/>
      <line class="cls-8" x1="94.74" y1="44.85" x2="94.74" y2="59.89"/>
      <line class="cls-8" x1="104.63" y1="50.92" x2="104.63" y2="60.21"/>
    </g>
    <g>
      <line class="cls-2" x1="97.18" y1="20.12" x2="97.18" y2="60"/>
      <line class="cls-2" x1="107.07" y1="41.08" x2="107.07" y2="60"/>
      <line class="cls-2" x1="116.97" y1="31.18" x2="116.97" y2="60.41"/>
    </g>
    <line class="cls-5" x1="84.68" y1="62.64" x2="117.13" y2="62.64"/>
  </g>
</svg>